<svg id="ea5cc683-ba7e-4f80-94a8-1b825c9eafea" data-name="Capa 1" xmlns="http://www.w3.org/2000/svg" viewBox="0 0 872.92 861.14"><defs><style>.f3ef9258-e093-4478-a4b1-cc3a203d95fa{fill:#e7c5bc;}</style></defs><path class="f3ef9258-e093-4478-a4b1-cc3a203d95fa" d="M179.45,197c42.11-7.75,57.23,64.18,68.21,92.17,10.24,26.11,25.75,48.49,51.33,61.23,115.91,57.74,309.81,8,356.45-121,8.84-24.45,12.68-50.78,24.63-73.87s35.49-43.2,61.29-40.05c15.2,1.84,28.3,11.31,40,21.22C830.08,178.11,866.9,233.29,887,294c23.4,70.56,8.64,140.68-20.84,207.35-18.73,42.35-39.74,84.47-47.35,130.14S819.29,728.21,852,761c43.51,43.61,93.81,51.93,98.2,122.89,1.39,22.47-1.12,46.56-14.95,64.33-19.58,25.14-55.65,30.24-87.38,27.35-75.64-6.89-144.75-47.46-201.19-98.29-33-29.71-66.45-71.81-106.86-90.56-43-19.93-97.43-15.6-143-10.76-54.88,5.81-111,15.3-164.65,2.51-35.64-8.49-70.63-29.57-90.94-60.61-28.75-44-6.34-69.72,23-105.12,13.89-16.74,25.38-39.64,16.74-59.61-11.26-26-46.58-28.47-71.05-42.83-37.5-22-35.64-59.77-27.36-97.4,12-54.64,25.33-109.26,46.5-161,8.36-20.44,19.4-41.91,39.41-51.24A45.88,45.88,0,0,1,179.45,197Z" transform="translate(-77.59 -115.14)"/></svg>